<?xml version="1.0" standalone="no"?>
<!DOCTYPE svg PUBLIC "-//W3C//DTD SVG 20010904//EN"
 "http://www.w3.org/TR/2001/REC-SVG-20010904/DTD/svg10.dtd">
<svg version="1.0" xmlns="http://www.w3.org/2000/svg"
 width="700.000000pt" height="700.000000pt" viewBox="0 0 700.000000 700.000000"
 preserveAspectRatio="xMidYMid meet">
<metadata>
Created by potrace 1.14, written by Peter Selinger 2001-2017
</metadata>
<g transform="translate(0.000000,700.000000) scale(0.100000,-0.100000)"
fill="#000000" stroke="none">
<path d="M2875 5769 c-12 -6 -54 -79 -107 -187 -103 -210 -230 -408 -330 -513
-7 -8 -47 -52 -88 -99 -41 -47 -79 -90 -85 -96 -27 -30 -102 -119 -114 -138
-8 -12 -18 -23 -22 -26 -4 -3 -43 -61 -88 -130 -158 -241 -260 -489 -286 -695
-3 -27 -8 -65 -11 -83 -7 -55 -7 -232 1 -307 26 -253 130 -508 293 -715 67
-85 227 -236 347 -328 274 -211 353 -290 412 -412 28 -58 62 -170 65 -216 1
-19 5 -37 8 -39 4 -2 37 91 75 208 l68 212 -2 115 -2 115 78 77 c43 43 118
110 168 149 102 82 92 71 217 249 121 174 116 165 87 149 -13 -6 -48 -27 -77
-45 -29 -19 -54 -34 -57 -34 -2 0 27 63 65 139 85 169 144 338 131 373 -20 52
-79 76 -127 50 -21 -11 -24 -17 -95 -187 -45 -110 -159 -340 -208 -423 -39
-67 -105 -157 -148 -202 l-33 -35 0 277 0 276 63 53 c34 29 67 58 72 64 8 9
268 231 370 315 47 40 144 130 207 194 44 44 58 65 58 88 0 39 -15 65 -48 82
-52 26 -73 17 -169 -74 -57 -55 -141 -129 -413 -365 -19 -16 -55 -49 -81 -72
-25 -24 -49 -43 -53 -43 -3 0 -6 62 -6 138 l0 137 157 105 c175 117 358 261
399 315 47 62 23 136 -48 149 -31 5 -40 0 -191 -124 -58 -47 -153 -118 -211
-158 l-106 -73 0 220 c0 130 4 221 10 223 5 2 31 23 57 48 26 25 107 97 178
160 72 62 142 124 156 137 l26 24 84 -101 c72 -87 219 -291 219 -305 0 -2 13
-26 29 -53 97 -166 172 -440 183 -674 1 -27 4 -48 7 -48 7 1 154 208 162 228
3 8 -1 45 -8 81 -7 36 -15 80 -18 98 -16 88 -96 296 -158 413 -86 160 -225
343 -402 528 -147 153 -164 173 -240 267 -98 121 -170 231 -255 390 -39 74
-76 138 -83 143 -20 15 -61 21 -82 11z m-32 -674 c0 -107 -2 -197 -4 -200 -3
-2 -37 36 -77 86 l-73 89 54 83 c30 45 62 96 73 114 10 18 20 31 22 28 2 -2 4
-92 5 -200z m273 45 c40 -52 99 -125 133 -161 l60 -66 -149 -132 -150 -131 1
318 c0 301 1 316 17 292 9 -14 49 -68 88 -120z m-476 -281 c29 -44 86 -124
126 -177 41 -53 74 -106 75 -117 1 -11 2 -36 3 -55 1 -19 0 -38 -2 -43 -2 -4
-32 28 -68 72 -35 44 -74 87 -86 95 -64 45 -153 -14 -134 -89 5 -21 83 -128
140 -192 13 -15 52 -62 85 -103 70 -85 62 -39 62 -379 0 -106 -1 -195 -3 -196
-2 -2 -39 31 -83 72 -44 41 -124 111 -177 155 -54 45 -99 86 -99 92 -1 6 -3
108 -4 226 -2 118 -3 225 -4 238 0 13 -13 34 -27 47 -49 45 -126 24 -140 -38
-4 -18 -7 -103 -6 -190 1 -117 -2 -156 -11 -150 -11 6 -24 17 -69 55 -50 42
-126 26 -146 -32 -15 -40 0 -80 41 -113 18 -14 98 -76 178 -138 138 -107 197
-155 294 -239 22 -19 88 -83 148 -142 82 -84 107 -114 108 -136 0 -44 1 -403
0 -457 l-1 -49 -17 24 c-9 14 -36 46 -59 72 -23 26 -115 148 -205 270 -194
264 -225 298 -267 298 -43 0 -83 -37 -84 -77 -1 -33 27 -79 168 -272 30 -41
53 -76 51 -77 -1 -2 -45 9 -97 24 -52 15 -101 27 -107 26 -7 -1 -22 -2 -33 -3
-11 0 -29 -15 -39 -32 -21 -34 -15 -77 14 -109 9 -10 94 -44 188 -75 256 -85
276 -96 390 -210 94 -94 97 -99 98 -144 1 -57 1 -231 0 -249 -1 -8 -31 14 -68
48 -38 35 -140 117 -228 183 -253 191 -392 343 -489 535 -166 329 -167 729 -3
1101 46 105 145 269 226 376 63 83 293 354 302 354 3 1 30 -35 59 -80z"/>
<path d="M5067 5299 c-56 -13 -136 -54 -181 -91 -53 -44 -110 -123 -400 -555
-271 -404 -266 -394 -211 -449 29 -29 69 -31 107 -6 30 20 50 48 289 402 257
382 280 413 312 447 34 37 95 68 152 79 l38 7 -217 -322 c-119 -177 -216 -326
-216 -330 0 -5 6 -14 14 -20 12 -10 22 -2 54 41 53 72 401 594 408 612 3 8 11
13 17 12 41 -9 67 -19 67 -27 0 -10 -30 -60 -41 -69 -3 -3 -13 -19 -22 -36
-12 -23 -13 -34 -4 -43 18 -18 25 -14 64 45 21 31 39 51 41 45 2 -7 -15 -41
-38 -77 l-43 -65 -19 21 c-33 35 -18 53 -260 -307 -74 -110 -133 -205 -129
-210 3 -5 26 -23 50 -40 33 -25 46 -29 55 -20 6 7 54 75 106 152 102 152 166
240 157 213 -3 -9 -60 -98 -127 -198 -67 -100 -120 -186 -118 -191 2 -5 41
-36 87 -68 l84 -60 41 59 c181 262 290 426 302 456 15 35 15 35 -25 76 l-40
40 29 36 c132 165 71 364 -131 432 -56 19 -191 24 -252 9z"/>
<path d="M4619 4417 c-28 -21 -41 -57 -35 -93 6 -28 21 -43 104 -101 53 -37
102 -71 107 -76 6 -4 44 -32 86 -62 207 -144 210 -145 260 -96 37 37 40 88 7
118 -13 12 -119 89 -237 172 -221 155 -251 170 -292 138z"/>
<path d="M4501 4247 c-103 -122 -190 -244 -733 -1027 -435 -629 -428 -620
-548 -750 -47 -50 -88 -97 -92 -104 -4 -6 -25 -70 -48 -141 -87 -268 -176
-528 -219 -634 -130 -318 -152 -382 -141 -396 7 -8 20 -15 29 -15 9 0 75 53
147 118 233 209 266 238 564 497 25 22 90 76 143 120 87 71 107 94 175 200 75
117 356 540 399 600 18 25 335 491 725 1064 53 79 96 147 93 150 -2 4 -41 33
-87 64 -46 31 -152 106 -236 166 l-153 110 -18 -22z m186 -288 l23 -17 -29
-40 c-22 -29 -26 -43 -18 -51 19 -19 34 -13 65 27 17 20 32 35 35 32 3 -4
-525 -789 -692 -1030 -70 -99 -319 -471 -402 -598 -92 -141 -117 -172 -185
-228 -143 -119 -177 -148 -272 -231 -51 -46 -95 -83 -97 -83 -2 0 22 78 54
173 32 94 73 219 92 277 33 102 36 107 116 190 85 88 112 121 176 211 230 326
315 448 552 793 39 56 158 229 265 384 l194 281 51 -37 c27 -20 60 -44 72 -53z"/>
<path d="M4580 3757 c-31 -45 -107 -157 -170 -250 -108 -159 -113 -168 -95
-181 11 -8 23 -12 26 -10 7 4 85 118 241 351 93 139 96 147 63 165 -6 4 -35
-31 -65 -75z"/>
<path d="M4191 3185 c-81 -120 -84 -126 -65 -139 24 -18 20 -22 119 123 73
107 77 115 60 128 -11 7 -21 13 -24 13 -3 0 -44 -57 -90 -125z"/>
<path d="M4075 3020 c-18 -20 -18 -21 1 -35 25 -19 28 -19 49 5 18 20 18 21
-1 35 -25 19 -28 19 -49 -5z"/>
<path d="M4020 2931 l-21 -30 22 -11 c17 -9 24 -8 40 6 23 21 25 50 3 58 -22
8 -20 9 -44 -23z"/>
<path d="M3975 2863 c-24 -29 -214 -306 -227 -331 -10 -19 -9 -25 3 -33 8 -5
19 -7 24 -6 10 3 211 287 239 338 13 23 13 26 -5 37 -16 10 -22 9 -34 -5z"/>
<path d="M3681 2433 c-47 -66 -48 -74 -22 -90 17 -10 22 -7 48 30 15 23 34 48
41 55 16 18 15 26 -7 46 -18 16 -20 15 -60 -41z"/>
<path d="M3520 2200 c-55 -76 -105 -142 -110 -145 -12 -7 -13 -35 -2 -35 16 0
133 112 165 159 84 121 87 127 66 144 -17 15 -24 8 -119 -123z"/>
<path d="M3366 1993 c-6 -14 -5 -15 5 -6 7 7 10 15 7 18 -3 3 -9 -2 -12 -12z"/>
</g>
</svg>
