<?xml version="1.0" encoding="UTF-8" standalone="no"?>
<!DOCTYPE svg PUBLIC "-//W3C//DTD SVG 1.1//EN" "http://www.w3.org/Graphics/SVG/1.1/DTD/svg11.dtd">
<svg xmlns="http://www.w3.org/2000/svg" version="1.1" viewBox="0.00 0.00 1024.00 1024.00">
<g stroke-width="2.00" fill="none" stroke-linecap="butt">
<path fill="#182939" d="
  M 499.65 588.86
  L 523.09 574.82
  A 0.36 0.35 83.2 0 1 523.61 575.23
  Q 523.56 575.41 523.40 575.64
  Q 507.30 599.56 490.53 623.02
  Q 490.02 623.74 488.32 625.06
  Q 482.76 629.38 477.18 633.68
  Q 457.99 648.47 441.50 666.23
  C 440.64 667.16 440.28 668.00 440.28 669.35
  Q 440.25 681.83 440.25 694.31
  Q 440.25 694.90 440.82 694.79
  Q 441.52 694.67 441.94 695.23
  A 1.18 1.17 -56.9 0 1 442.14 696.21
  Q 441.56 698.50 440.85 700.71
  C 433.89 722.24 426.95 743.77 420.08 765.33
  Q 419.91 765.87 419.85 765.30
  C 417.17 739.22 409.41 718.21 390.29 699.45
  C 375.57 685.01 360.30 673.99 344.45 662.05
  C 294.84 624.69 260.11 572.75 254.95 509.74
  Q 249.47 442.88 280.68 383.94
  Q 301.11 345.35 329.43 313.17
  Q 335.56 306.21 356.71 282.45
  C 381.43 254.67 399.85 221.71 414.29 187.60
  C 418.85 176.84 430.99 175.70 436.44 186.59
  Q 443.87 201.47 448.61 210.16
  Q 469.39 248.27 499.15 279.85
  C 518.33 300.19 537.06 318.50 554.42 342.09
  C 579.84 376.63 597.70 417.04 603.28 459.74
  C 603.52 461.53 603.47 462.66 602.34 464.19
  Q 590.33 480.33 579.12 496.63
  Q 578.61 497.37 578.59 496.47
  C 577.84 467.30 572.58 438.58 561.35 411.02
  C 547.82 377.84 526.74 350.30 503.05 323.84
  Q 502.51 323.23 501.90 323.77
  L 441.15 377.92
  A 2.94 2.92 69.2 0 0 440.18 380.10
  L 440.32 441.28
  Q 440.32 441.71 440.67 441.47
  C 459.78 428.79 482.42 413.53 500.49 396.70
  C 506.85 390.78 513.20 386.59 520.79 392.73
  C 527.92 398.49 527.00 406.85 520.93 412.94
  C 498.21 435.73 473.29 451.45 445.29 469.68
  C 443.74 470.69 442.23 472.21 440.72 473.33
  A 1.25 1.23 72.0 0 0 440.22 474.33
  L 440.24 514.55
  Q 440.24 515.14 440.68 514.75
  C 441.69 513.87 442.75 512.60 443.58 511.86
  C 468.98 489.20 495.18 467.42 520.36 444.54
  C 524.03 441.20 527.94 436.55 531.25 433.75
  C 543.73 423.20 560.96 441.05 549.43 452.68
  Q 533.19 469.05 521.39 479.39
  C 511.24 488.28 496.93 499.80 485.05 510.15
  Q 462.92 529.42 440.85 548.35
  A 1.77 1.76 -20.4 0 0 440.23 549.69
  L 440.27 630.01
  A 0.15 0.14 66.6 0 0 440.52 630.11
  Q 457.49 612.25 469.50 590.66
  Q 490.63 552.62 506.17 511.99
  C 511.91 496.97 534.07 505.18 529.87 520.08
  C 523.18 543.84 511.96 567.44 499.39 588.60
  A 0.19 0.19 0.0 0 0 499.65 588.86
  Z
  M 415.40 247.13
  C 408.94 259.04 401.74 270.71 393.52 281.40
  A 1.16 1.15 43.9 0 0 393.55 282.84
  L 415.56 309.40
  Q 415.84 309.75 415.84 309.30
  L 415.72 247.21
  Q 415.72 246.53 415.40 247.13
  Z
  M 442.71 254.08
  Q 441.46 252.23 440.41 250.49
  Q 440.09 249.96 440.10 250.58
  L 440.32 343.88
  A 0.04 0.04 0.0 0 0 440.38 343.91
  Q 459.89 326.09 480.13 309.13
  Q 481.99 307.57 483.82 305.88
  Q 484.20 305.54 483.84 305.17
  Q 461.06 281.40 442.71 254.08
  Z
  M 373.68 359.76
  C 370.90 350.98 378.24 342.30 387.53 343.59
  Q 392.82 344.32 396.54 348.73
  Q 406.31 360.28 415.68 371.98
  Q 416.01 372.40 416.01 371.86
  Q 415.97 364.68 416.00 357.39
  C 416.02 353.92 414.83 352.24 412.84 349.66
  C 401.56 335.13 388.21 317.74 378.11 300.61
  A 0.24 0.24 0.0 0 0 377.72 300.58
  C 363.05 317.68 347.28 334.63 333.94 352.19
  C 309.29 384.61 290.92 420.08 284.55 460.00
  C 274.02 526.01 297.62 586.80 348.43 629.05
  C 370.38 647.30 395.74 662.29 415.57 684.33
  Q 415.78 684.56 415.78 684.25
  L 415.72 639.48
  A 1.92 1.91 24.0 0 0 415.22 638.19
  Q 406.96 629.13 398.03 620.46
  C 391.46 614.10 385.07 607.89 380.25 606.02
  Q 352.31 595.16 323.63 586.43
  Q 317.07 584.43 313.94 578.34
  C 310.23 571.09 313.77 562.32 321.76 561.05
  Q 324.99 560.53 331.54 562.24
  Q 342.93 565.21 355.76 569.52
  Q 356.49 569.77 356.07 569.11
  Q 353.61 565.27 350.60 561.20
  Q 337.95 544.05 325.57 526.71
  C 315.16 512.15 334.92 497.25 346.19 512.07
  Q 356.18 525.20 373.46 549.05
  Q 395.90 580.02 414.31 601.04
  C 414.67 601.45 414.91 602.20 415.33 602.65
  Q 415.76 603.10 415.76 602.48
  Q 415.69 565.24 415.73 527.99
  C 415.73 526.46 415.39 525.39 414.41 524.34
  Q 386.19 493.62 353.42 467.80
  Q 332.72 451.48 311.69 435.58
  C 305.93 431.23 301.37 426.75 302.22 419.66
  C 303.39 409.99 313.42 405.23 321.80 410.60
  C 326.52 413.62 331.14 417.61 335.36 421.17
  Q 336.37 422.03 336.35 420.70
  Q 335.92 398.79 336.16 377.04
  Q 336.21 371.82 337.04 369.56
  C 341.93 356.19 361.35 359.78 361.70 374.01
  Q 362.26 397.23 361.91 434.40
  C 361.87 439.08 361.37 440.45 364.85 443.15
  Q 391.55 463.90 415.29 487.71
  Q 415.72 488.14 415.72 487.54
  L 415.69 414.90
  Q 415.69 413.55 414.83 412.50
  Q 396.39 390.06 377.88 367.09
  Q 374.78 363.25 373.68 359.76
  Z"
/>
<path fill="#182939" d="
  M 763.33 333.65
  Q 761.95 334.61 760.36 336.88
  C 747.97 354.51 736.21 372.55 723.81 390.16
  Q 723.49 390.62 723.04 390.29
  L 709.22 380.45
  A 1.73 1.72 34.8 0 1 708.79 378.08
  L 760.13 302.15
  A 1.97 1.84 30.6 0 1 762.60 301.60
  C 765.03 302.85 766.60 303.93 767.59 306.54
  A 0.90 0.90 0.0 0 0 769.17 306.73
  Q 775.09 298.16 780.34 290.29
  Q 781.85 288.04 780.78 285.01
  Q 780.58 284.45 780.25 284.95
  L 769.99 300.40
  Q 768.96 301.94 767.44 300.88
  L 764.64 298.91
  Q 763.07 297.80 764.14 296.21
  L 775.50 279.24
  A 1.61 1.60 31.9 0 0 774.96 276.96
  C 772.40 275.49 767.90 274.39 764.98 273.93
  A 0.73 0.73 0.0 0 0 764.22 274.32
  C 761.81 279.11 758.05 284.09 755.78 287.53
  Q 732.62 322.77 708.95 357.66
  C 706.21 361.71 701.86 367.51 698.69 372.59
  A 0.80 0.80 0.0 0 1 697.51 372.78
  L 693.18 369.24
  Q 692.48 368.68 692.98 367.93
  L 756.28 273.87
  Q 756.70 273.24 755.95 273.33
  C 743.48 274.80 732.93 279.11 725.37 289.37
  Q 719.29 297.62 713.55 306.10
  Q 680.39 355.06 647.37 404.11
  C 641.42 412.94 629.57 417.17 622.67 406.36
  C 618.74 400.20 620.80 396.06 624.77 390.14
  Q 660.40 337.10 696.17 284.16
  C 703.58 273.19 711.50 263.39 722.51 256.54
  C 737.14 247.43 756.44 245.33 773.24 248.54
  C 798.18 253.29 816.83 279.30 803.48 303.87
  C 800.80 308.80 796.82 314.49 792.77 319.06
  A 0.49 0.48 36.0 0 0 792.89 319.80
  C 797.67 322.64 804.92 327.29 803.81 333.62
  Q 803.40 335.93 799.92 341.06
  Q 776.39 375.80 752.96 410.20
  Q 752.50 410.88 751.82 410.40
  L 726.69 392.76
  A 1.13 1.13 0.0 0 1 726.41 391.18
  Q 744.42 365.35 761.10 339.44
  Q 762.82 336.78 764.13 334.37
  Q 765.23 332.34 763.33 333.65
  Z"
/>
<rect fill="#182939" x="-49.92" y="-12.71" transform="translate(713.21,410.08) rotate(35.3)" width="99.84" height="25.42" rx="11.88"/>
<path fill="#182939" d="
  M 403.58 829.31
  C 413.62 804.09 423.74 778.71 432.61 753.05
  Q 445.22 716.62 456.48 679.74
  C 456.88 678.43 458.19 676.42 459.33 675.22
  C 471.20 662.67 483.48 650.15 493.46 636.00
  Q 532.84 580.19 571.46 523.85
  Q 577.15 515.56 582.88 507.43
  C 602.67 479.38 620.84 452.39 640.39 425.28
  C 642.23 422.73 644.77 420.29 646.61 417.86
  Q 653.36 409.00 659.35 401.04
  Q 660.64 399.32 662.39 400.56
  L 731.24 449.48
  A 0.51 0.44 -55.3 0 1 731.31 450.15
  C 697.18 500.07 663.36 550.25 629.09 600.11
  Q 596.70 647.23 565.23 694.98
  Q 554.02 711.99 543.36 729.34
  C 541.00 733.18 535.35 736.64 531.69 739.69
  C 489.32 775.05 451.66 808.85 406.13 849.63
  C 401.10 854.13 394.50 849.19 397.33 843.29
  Q 401.38 834.83 403.58 829.31
  Z
  M 685.30 462.72
  L 681.43 459.99
  A 1.38 1.38 0.0 0 1 681.10 458.07
  L 688.63 447.47
  Q 689.01 446.93 688.47 446.55
  L 667.80 432.02
  A 0.54 0.54 0.0 0 0 667.02 432.19
  Q 664.89 435.84 662.39 439.44
  C 612.64 510.87 563.78 582.96 513.33 653.89
  C 504.59 666.17 493.52 676.36 483.03 686.96
  A 5.46 5.45 -13.7 0 0 481.72 689.11
  L 454.97 770.29
  Q 454.74 770.98 455.28 770.48
  C 465.97 760.57 477.90 749.98 493.89 736.87
  C 501.07 730.99 511.01 721.92 520.14 715.08
  C 520.85 714.54 521.48 713.75 521.87 713.11
  Q 527.01 704.60 543.12 680.36
  Q 565.50 646.67 588.33 613.28
  Q 593.86 605.18 599.27 596.99
  C 605.21 587.99 612.13 578.47 617.57 570.35
  Q 630.03 551.73 642.65 533.21
  Q 669.53 493.77 696.92 453.35
  A 0.81 0.81 0.0 0 0 696.52 452.13
  L 696.07 451.96
  Q 695.06 451.60 694.42 452.46
  L 687.01 462.45
  Q 686.29 463.42 685.30 462.72
  Z"
/>
<path fill="#182939" d="
  M 683.78 467.62
  L 635.33 539.19
  A 1.12 1.12 0.0 0 1 633.73 539.46
  L 629.30 536.13
  A 1.12 1.12 0.0 0 1 629.04 534.61
  L 677.76 463.05
  A 1.12 1.12 0.0 0 1 679.38 462.80
  L 683.55 466.11
  A 1.12 1.12 0.0 0 1 683.78 467.62
  Z"
/>
<path fill="#182939" d="
  M 631.41 542.86
  A 1.24 1.24 0.0 0 1 631.73 544.59
  L 609.56 576.96
  A 4.60 1.61 -55.6 0 1 605.63 579.85
  L 602.04 577.39
  A 4.60 1.61 -55.6 0 1 603.31 572.68
  L 625.48 540.30
  A 1.24 1.24 0.0 0 1 627.20 539.98
  L 631.41 542.86
  Z"
/>
<path fill="#182939" d="
  M 605.39 583.76
  L 600.25 590.31
  A 0.33 0.33 0.0 0 1 599.78 590.36
  L 594.02 585.65
  A 0.33 0.33 0.0 0 1 593.97 585.19
  L 599.31 578.44
  A 0.33 0.33 0.0 0 1 599.79 578.40
  L 605.35 583.30
  A 0.33 0.33 0.0 0 1 605.39 583.76
  Z"
/>
<rect fill="#182939" x="-3.81" y="-5.67" transform="translate(591.68,597.05) rotate(36.3)" width="7.62" height="11.34" rx="0.96"/>
<rect fill="#182939" x="-3.84" y="-32.92" transform="translate(567.69,631.66) rotate(34.4)" width="7.68" height="65.84" rx="1.85"/>
<rect fill="#182939" x="-4.07" y="-11.30" transform="translate(541.04,671.49) rotate(34.7)" width="8.14" height="22.60" rx="1.30"/>
<path fill="#182939" d="
  M 514.41 715.70
  C 509.85 719.69 505.34 723.83 500.63 727.62
  C 499.57 728.48 498.19 728.86 497.19 727.81
  A 1.49 1.49 0.0 0 1 497.07 725.91
  C 500.90 720.69 505.52 715.64 508.99 710.74
  Q 518.93 696.74 529.04 682.55
  Q 529.47 681.95 530.03 682.43
  L 534.61 686.35
  A 0.85 0.83 37.6 0 1 534.76 687.45
  Q 527.08 698.84 519.58 709.86
  Q 517.38 713.10 514.41 715.70
  Z"
/>
<path fill="#182939" d="
  M 495.41 731.45
  A 0.13 0.13 0.0 0 1 495.43 731.63
  L 495.36 731.72
  A 4.61 0.80 -51.5 0 1 491.86 734.83
  L 491.73 734.73
  A 4.61 0.80 -51.5 0 1 493.98 730.63
  L 494.05 730.53
  A 0.13 0.13 0.0 0 1 494.24 730.51
  L 495.41 731.45
  Z"
/>
</g>
</svg>
